<svg width="64" height="64" viewBox="0 0 64 64" fill="none" xmlns="http://www.w3.org/2000/svg">
<rect width="64" height="64" fill="#042436"/>
<path fill-rule="evenodd" clip-rule="evenodd" d="M55.5445 46.8891L33.9669 9.62488C33.4843 8.79171 32.2922 8.79171 31.8096 9.62488L13.4723 41.2927C13.15 41.8498 13.7317 42.493 14.3098 42.2192C14.5472 42.1063 14.8211 41.9928 15.122 41.8796L15.1159 41.892C15.1159 41.892 15.6169 41.6958 16.4635 41.4249C17.3965 41.1354 18.4189 40.8613 19.3445 40.6297C21.9344 40.0258 25.3282 39.5341 28.3884 40.0474C31.2047 40.5194 33.166 41.282 34.5945 42.0314C35.2494 42.3755 35.868 41.5119 35.3384 40.9921C33.2903 38.9816 30.1388 36.5547 25.3454 35.5377C25.1355 35.4932 25.0302 35.2541 25.1387 35.067L32.3579 22.5995C32.5953 22.1899 33.1812 22.1899 33.4186 22.5995L47.206 46.4102C47.4965 46.9117 47.253 47.5522 46.7076 47.7367C45.6272 48.1014 44.3366 48.3742 42.8919 48.3742C41.9727 48.3742 41.0481 48.2647 40.1212 48.0471C40.1212 48.0471 37.4494 47.6212 33.8781 45.4691C30.3069 43.3173 23.4213 40.5721 15.6949 45.0164C12.4029 47.1531 10.2094 50.0756 9.0535 51.9104C8.87246 52.1976 9.18498 52.5401 9.48229 52.3798C12.137 50.9474 19.2947 47.5643 25.7444 48.7805C29.5779 49.5031 33.9588 52.4263 38.5129 54.1024C46.0466 56.9222 53.4326 52.198 53.4485 52.1878C54.2293 51.6667 54.6879 51.2706 54.7659 51.2019L54.8602 51.1188C56.064 50.0576 56.3512 48.282 55.5445 46.8891Z" fill="#00ADD4"/>
</svg>
