<?xml version="1.0" encoding="UTF-8"?>
<svg width="166px" height="35px" viewBox="0 0 166 35" version="1.1" xmlns="http://www.w3.org/2000/svg" xmlns:xlink="http://www.w3.org/1999/xlink">
    <title>delta-logo-rev</title>
    <g id="delta-logo-rev" stroke="none" stroke-width="1" fill="none" fill-rule="evenodd">
        <path d="M45.7515287,9.89462384 C47.8253178,9.89462384 49.5232566,10.5025249 50.8443834,11.7178461 C51.5578495,12.3788904 52.0996221,13.1647372 52.4697011,14.0761079 C52.8390587,14.9879595 53.023978,16.0118688 53.023978,17.1478358 C53.023978,18.2842838 52.8390587,19.3113191 52.4697011,20.2291824 C52.0996221,21.1480076 51.5578495,21.9372209 50.8443834,22.5975438 C50.1835795,23.1922192 49.4277911,23.6414119 48.5753349,23.945122 C47.7233597,24.2490725 46.7819306,24.4008073 45.7515287,24.4008073 L40.3410168,24.4008073 C40.2090003,24.4008073 40.0967022,24.354878 40.0041223,24.2622982 C39.9115424,24.1699588 39.8656132,24.0576606 39.8656132,23.9254036 L39.8656132,10.3702679 C39.8656132,10.2384919 39.9115424,10.1259533 40.0041223,10.0333734 C40.0967022,9.94103401 40.2090003,9.89462384 40.3410168,9.89462384 L45.7515287,9.89462384 Z M65.3307523,9.89447956 C65.4627688,9.89447956 65.575067,9.9411302 65.6676469,10.0334696 C65.7602267,10.125809 65.8066369,10.2383476 65.8066369,10.3703641 L65.8066369,13.06528 C65.8066369,13.1977774 65.7602267,13.3100756 65.6676469,13.4021745 C65.575067,13.4949948 65.4627688,13.5409241 65.3307523,13.5409241 L59.1678186,13.5409241 C59.0358021,13.5409241 58.923504,13.5875747 58.8309241,13.6799141 C58.7383442,13.7722535 58.692415,13.8847922 58.692415,14.0168087 L58.692415,14.8490656 C58.692415,14.9810821 58.7383442,15.0938612 58.8309241,15.1859602 C58.923504,15.2782996 59.0358021,15.3244693 59.1678186,15.3244693 L64.5384129,15.3244693 C64.6704294,15.3244693 64.7827276,15.3708794 64.875067,15.4634593 C64.9676469,15.5557987 65.0135761,15.6683373 65.0135761,15.8003538 L65.0135761,18.5349468 C65.0135761,18.6672037 64.9676469,18.7797424 64.875067,18.8718413 C64.7827276,18.9644212 64.6704294,19.0108313 64.5384129,19.0108313 L59.1678186,19.0108313 C59.0358021,19.0108313 58.923504,19.057001 58.8309241,19.1495809 C58.7383442,19.2419203 58.692415,19.3542185 58.692415,19.486235 L58.692415,20.2393782 C58.692415,20.3716352 58.7383442,20.4839334 58.8309241,20.5760323 C58.923504,20.6686122 59.0358021,20.7147819 59.1678186,20.7147819 L65.3307523,20.7147819 C65.4627688,20.7147819 65.575067,20.7614325 65.6676469,20.8537719 C65.7602267,20.9461113 65.8066369,21.0584095 65.8066369,21.1906664 L65.8066369,23.9252594 C65.8066369,24.0577568 65.7602267,24.170055 65.6676469,24.2621539 C65.575067,24.3547338 65.4627688,24.4009035 65.3307523,24.4009035 L55.243875,24.4009035 C55.1118585,24.4009035 54.9995603,24.3547338 54.9069804,24.2621539 C54.8144005,24.170055 54.7684713,24.0577568 54.7684713,23.9252594 L54.7684713,10.3703641 C54.7684713,10.2383476 54.8144005,10.125809 54.9069804,10.0334696 C54.9995603,9.9411302 55.1118585,9.89447956 55.243875,9.89447956 L65.3307523,9.89447956 Z M71.751563,9.89450361 C71.8835795,9.89450361 71.9958777,9.94115424 72.0884576,10.0332532 C72.180797,10.125833 72.2274476,10.2383717 72.2274476,10.3703882 L72.2274476,20.2788389 C72.2274476,20.4113363 72.2700103,20.5236345 72.3558571,20.6157334 C72.4414634,20.7085538 72.5573686,20.754483 72.7028513,20.754483 L78.6678805,20.754483 C78.7998969,20.754483 78.9121951,20.8011336 79.004775,20.893473 C79.0966335,20.985572 79.1432841,21.0983511 79.1432841,21.2301271 L79.1432841,23.9252834 C79.1432841,24.0577808 79.0966335,24.170079 79.004775,24.2621779 C78.9121951,24.3547578 78.7998969,24.4009275 78.6678805,24.4009275 L68.7786671,24.4009275 C68.6331845,24.4009275 68.5180007,24.3547578 68.4321539,24.2621779 C68.3458262,24.170079 68.303504,24.0577808 68.303504,23.9252834 L68.303504,10.3703882 C68.303504,10.2383717 68.3458262,10.125833 68.4321539,10.0332532 C68.5180007,9.94115424 68.6331845,9.89450361 68.7786671,9.89450361 L71.751563,9.89450361 Z M88.35854,9.89459979 C88.5035417,9.89459979 88.6192065,9.94100996 88.7052937,10.0333494 C88.7909,10.1259292 88.8339437,10.2384679 88.8339437,10.3702439 L88.8339437,13.0651597 C88.8339437,13.1976572 88.7909,13.3099553 88.7052937,13.4022947 C88.6192065,13.4951151 88.5035417,13.5410443 88.35854,13.5410443 L85.5835486,13.5410443 C85.4515321,13.5410443 85.3392339,13.5874545 85.2468945,13.6797939 C85.1543147,13.7723738 85.1083854,13.8849124 85.1083854,14.0169289 L85.1083854,23.9253796 C85.1083854,24.0576366 85.0653418,24.1699347 84.9797355,24.2622741 C84.8936482,24.354854 84.777743,24.4007832 84.6329818,24.4007832 L81.6603263,24.4007832 C81.5283099,24.4007832 81.4152903,24.354854 81.3234318,24.2622741 C81.2308519,24.1699347 81.1844418,24.0576366 81.1844418,23.9253796 L81.1844418,14.0169289 C81.1844418,13.8849124 81.1413981,13.7723738 81.0557918,13.6797939 C80.9697046,13.5874545 80.8542803,13.5410443 80.7090381,13.5410443 L77.895091,13.5410443 C77.7625936,13.5410443 77.6502954,13.4951151 77.5581965,13.4022947 C77.4651357,13.3099553 77.4192065,13.1976572 77.4192065,13.0651597 L77.4192065,10.3702439 C77.4192065,10.2384679 77.4651357,10.1259292 77.5581965,10.0333494 C77.6502954,9.94100996 77.7625936,9.89459979 77.895091,9.89459979 L88.35854,9.89459979 Z M96.5434421,9.91482308 C96.6747372,9.91482308 96.8041086,9.95762625 96.9296324,10.0432326 C97.0546754,10.1293198 97.1438887,10.2315184 97.1967915,10.3503092 L102.983875,23.8263312 C103.036297,23.945122 103.026438,24.0706458 102.954057,24.2029028 C102.881436,24.3349193 102.738839,24.4008073 102.527709,24.4008073 L99.1388045,24.4008073 C98.9935623,24.4008073 98.8584198,24.3580041 98.7328959,24.2721573 C98.6071316,24.1860701 98.5116661,24.0838715 98.4455376,23.9648403 L97.9107386,22.77573 C97.8443696,22.6571797 97.7484232,22.5547406 97.6231398,22.4686534 C97.4976159,22.3830471 97.3684851,22.3400034 97.2369495,22.3400034 L93.055225,22.3400034 C92.9097424,22.3400034 92.7741189,22.3830471 92.6490759,22.4686534 C92.5233116,22.5547406 92.4343387,22.6571797 92.3814359,22.77573 L91.8261972,23.9648403 C91.7732944,24.0838715 91.6843215,24.1860701 91.5592786,24.2721573 C91.4335143,24.3580041 91.3043834,24.4008073 91.1723669,24.4008073 L87.7637444,24.4008073 C87.6980969,24.4008073 87.6288423,24.3878221 87.5562212,24.3613707 C87.4833597,24.3349193 87.4239643,24.2954827 87.3775541,24.2423394 C87.3316249,24.1896771 87.3018069,24.1235486 87.2885812,24.0444349 C87.2758365,23.9648403 87.2955548,23.8727413 87.3477362,23.7666953 L93.0946616,10.3503092 C93.1475644,10.2315184 93.2367777,10.1293198 93.3625421,10.0432326 C93.488066,9.95762625 93.6229681,9.91482308 93.7684507,9.91482308 L96.5434421,9.91482308 Z M114.576558,9.89450361 C114.708093,9.89450361 114.820873,9.94115424 114.913452,10.0332532 C115.005311,10.125833 115.051721,10.2383717 115.051721,10.3703882 L115.051721,20.2788389 C115.051721,20.4113363 115.095005,20.5236345 115.180371,20.6157334 C115.266699,20.7085538 115.381642,20.754483 115.527846,20.754483 L121.492394,20.754483 C121.624411,20.754483 121.736709,20.8011336 121.829289,20.893473 C121.921869,20.985572 121.968279,21.0983511 121.968279,21.2301271 L121.968279,23.9252834 C121.968279,24.0577808 121.921869,24.170079 121.829289,24.2621779 C121.736709,24.3547578 121.624411,24.4009275 121.492394,24.4009275 L111.603662,24.4009275 C111.45842,24.4009275 111.342515,24.3547578 111.257149,24.2621779 C111.171061,24.170079 111.128018,24.0577808 111.128018,23.9252834 L111.128018,10.3703882 C111.128018,10.2383717 111.171061,10.125833 111.257149,10.0332532 C111.342515,9.94115424 111.45842,9.89450361 111.603662,9.89450361 L114.576558,9.89450361 Z M131.520165,9.91482308 C131.65122,9.91482308 131.780831,9.95762625 131.906355,10.0432326 C132.031158,10.1293198 132.120611,10.2315184 132.173274,10.3503092 L137.960357,23.8263312 C138.012779,23.945122 138.00292,24.0706458 137.93078,24.2029028 C137.857918,24.3349193 137.715321,24.4008073 137.504191,24.4008073 L134.115527,24.4008073 C133.970045,24.4008073 133.834902,24.3580041 133.709378,24.2721573 C133.583854,24.1860701 133.488389,24.0838715 133.42202,23.9648403 L132.887221,22.77573 C132.821092,22.6571797 132.724906,22.5547406 132.599863,22.4686534 C132.474098,22.3830471 132.344967,22.3400034 132.213432,22.3400034 L128.031948,22.3400034 C127.886225,22.3400034 127.750842,22.3830471 127.625558,22.4686534 C127.500034,22.5547406 127.411061,22.6571797 127.357918,22.77573 L126.80292,23.9648403 C126.750017,24.0838715 126.660804,24.1860701 126.535761,24.2721573 C126.410237,24.3580041 126.280866,24.4008073 126.14909,24.4008073 L122.740467,24.4008073 C122.674579,24.4008073 122.605325,24.3878221 122.532704,24.3613707 C122.460082,24.3349193 122.400687,24.2954827 122.354036,24.2423394 C122.308107,24.1896771 122.27853,24.1235486 122.265064,24.0444349 C122.252319,23.9648403 122.272278,23.8727413 122.324459,23.7666953 L128.071384,10.3503092 C128.124287,10.2315184 128.213501,10.1293198 128.339024,10.0432326 C128.464548,9.95762625 128.599691,9.91482308 128.744933,9.91482308 L131.520165,9.91482308 Z M142.854923,9.89452765 C142.986939,9.89452765 143.099237,9.94117829 143.191817,10.0332772 C143.284397,10.1258571 143.330086,10.2383957 143.330086,10.3704122 L143.330086,14.9282274 C143.330086,15.0607248 143.357018,15.136472 143.409921,15.1561903 C143.462343,15.1759086 143.528712,15.1331055 143.607825,15.0272999 L147.175156,10.2912985 C147.25427,10.185493 147.366568,10.0962796 147.512051,10.0234181 C147.657053,9.95103744 147.802295,9.9147269 147.948018,9.9147269 L151.732731,9.9147269 C151.878214,9.9147269 151.970794,9.97748884 152.01023,10.1027722 C152.049907,10.2285366 152.029948,10.3439608 151.950835,10.4497664 L146.739189,16.9695534 C146.659595,17.0755995 146.623044,17.1972759 146.630017,17.3362659 C146.636269,17.4750155 146.686286,17.5906802 146.778866,17.6830196 C147.227338,18.1716489 147.703463,18.6804775 148.205558,19.2090244 C148.707654,19.7375713 149.206383,20.2690038 149.701505,20.8040433 C150.197108,21.3393233 150.685977,21.8678701 151.168355,22.3894435 C151.65001,22.9114978 152.109784,23.397001 152.545751,23.8461937 C152.637369,23.9519993 152.670553,24.0705496 152.644583,24.2028066 C152.61765,24.3348231 152.532284,24.4007111 152.386802,24.4007111 L148.284672,24.4007111 C148.139189,24.4007111 147.990821,24.368248 147.838846,24.3016386 C147.68663,24.2359911 147.571206,24.1501443 147.492333,24.0443387 L143.647503,19.7438234 C143.554923,19.6382583 143.479416,19.5988217 143.41978,19.6247922 C143.359904,19.651484 143.330086,19.7308382 143.330086,19.8626142 L143.330086,23.9253075 C143.330086,24.0578049 143.284397,24.1698626 143.191817,24.262202 C143.099237,24.3547819 142.986939,24.4007111 142.854923,24.4007111 L139.882267,24.4007111 C139.736785,24.4007111 139.62112,24.3547819 139.535514,24.262202 C139.449426,24.1698626 139.406864,24.0578049 139.406864,23.9253075 L139.406864,10.3704122 C139.406864,10.2383957 139.449426,10.1258571 139.535514,10.0332772 C139.62112,9.94117829 139.736785,9.89452765 139.882267,9.89452765 L142.854923,9.89452765 Z M164.455273,9.89447956 C164.58753,9.89447956 164.699828,9.9411302 164.792408,10.0334696 C164.884988,10.125809 164.930677,10.2383476 164.930677,10.3703641 L164.930677,13.06528 C164.930677,13.1977774 164.884988,13.3100756 164.792408,13.4021745 C164.699828,13.4949948 164.58753,13.5409241 164.455273,13.5409241 L158.292339,13.5409241 C158.159842,13.5409241 158.047544,13.5875747 157.955445,13.6799141 C157.862384,13.7722535 157.816455,13.8847922 157.816455,14.0168087 L157.816455,14.8490656 C157.816455,14.9810821 157.862384,15.0938612 157.955445,15.1859602 C158.047544,15.2782996 158.159842,15.3244693 158.292339,15.3244693 L163.662693,15.3244693 C163.794229,15.3244693 163.906767,15.3708794 163.999828,15.4634593 C164.091687,15.5557987 164.138337,15.6683373 164.138337,15.8003538 L164.138337,18.5349468 C164.138337,18.6672037 164.091687,18.7797424 163.999828,18.8718413 C163.906767,18.9644212 163.794229,19.0108313 163.662693,19.0108313 L158.292339,19.0108313 C158.159842,19.0108313 158.047544,19.057001 157.955445,19.1495809 C157.862384,19.2419203 157.816455,19.3542185 157.816455,19.486235 L157.816455,20.2393782 C157.816455,20.3716352 157.862384,20.4839334 157.955445,20.5760323 C158.047544,20.6686122 158.159842,20.7147819 158.292339,20.7147819 L164.455273,20.7147819 C164.58753,20.7147819 164.699828,20.7614325 164.792408,20.8537719 C164.884988,20.9461113 164.930677,21.0584095 164.930677,21.1906664 L164.930677,23.9252594 C164.930677,24.0577568 164.884988,24.170055 164.792408,24.2621539 C164.699828,24.3547338 164.58753,24.4009035 164.455273,24.4009035 L154.368396,24.4009035 C154.236379,24.4009035 154.1236,24.3547338 154.031742,24.2621539 C153.939162,24.170055 153.892511,24.0577568 153.892511,23.9252594 L153.892511,10.3703641 C153.892511,10.2383476 153.939162,10.125809 154.031742,10.0334696 C154.1236,9.9411302 154.236379,9.89447956 154.368396,9.89447956 L164.455273,9.89447956 Z M45.7515287,13.580505 L44.2649605,13.580505 C44.132944,13.580505 44.0206458,13.6271556 43.928066,13.7192546 C43.8354861,13.8118344 43.7895569,13.9246135 43.7895569,14.0563896 L43.7895569,20.2787187 C43.7895569,20.4112161 43.8354861,20.5235143 43.928066,20.6158537 C44.0206458,20.708674 44.132944,20.7546032 44.2649605,20.7546032 L45.7515287,20.7546032 C46.1211268,20.7546032 46.5044315,20.708674 46.9007214,20.6158537 C47.2970113,20.5235143 47.6536242,20.3484541 47.9708004,20.0906733 C48.2877362,19.8331329 48.5484026,19.469787 48.7537616,19.000876 C48.9581587,18.531965 49.0610787,17.9206974 49.0610787,17.1677946 C49.0610787,16.4144109 48.9581587,15.8036242 48.7537616,15.3347132 C48.5484026,14.8658021 48.2843696,14.5022157 47.9609413,14.2446754 C47.6372724,13.9868945 47.2806596,13.8118344 46.8908622,13.7192546 C46.5010649,13.6271556 46.1211268,13.580505 45.7515287,13.580505 Z M95.1359876,15.958966 C95.0696187,15.958966 95.0102233,16.0183614 94.9578014,16.1373926 L93.9668361,18.535091 C93.9139334,18.6541223 93.9139334,18.7563209 93.9668361,18.8424081 C94.019258,18.9282549 94.1188114,18.9710581 94.2642941,18.9710581 L96.0278805,18.9710581 C96.1598969,18.9710581 96.2558434,18.9282549 96.3152387,18.8424081 C96.3746341,18.7563209 96.3710271,18.6541223 96.3053796,18.535091 C96.1733631,18.2046891 96.0144143,17.8184988 95.829495,17.3755582 C95.6443353,16.9330986 95.4726417,16.5204569 95.3144143,16.1373926 C95.2615115,16.0183614 95.2021161,15.958966 95.1359876,15.958966 Z M130.11247,15.958966 C130.046101,15.958966 129.986946,16.0183614 129.934524,16.1373926 L128.943559,18.535091 C128.890656,18.6541223 128.890656,18.7563209 128.943559,18.8424081 C128.99574,18.9282549 129.095534,18.9710581 129.240776,18.9710581 L131.004363,18.9710581 C131.13662,18.9710581 131.232566,18.9282549 131.291721,18.8424081 C131.351116,18.7563209 131.34775,18.6541223 131.281862,18.535091 C131.149845,18.2046891 130.990897,17.8184988 130.805977,17.3755582 C130.620818,16.9330986 130.449124,16.5204569 130.291137,16.1373926 C130.237994,16.0183614 130.178598,15.958966 130.11247,15.958966 Z" id="Delta-Lake" fill="#FFFFFF"></path>
        <path d="M34.5592717,28.0928444 L18.5379045,0.69978358 C18.1796084,0.0873136379 17.2944486,0.0873136379 16.9361525,0.69978358 L3.32065957,23.9789316 C3.08139471,24.3884473 3.51327379,24.8612058 3.94250773,24.6599347 C4.11877018,24.5769735 4.32220543,24.4935314 4.54559945,24.4103298 L4.54103057,24.4194675 C4.54103057,24.4194675 4.91303332,24.2751872 5.54161457,24.0760804 C6.23440055,23.8632669 6.99355548,23.6617554 7.68081072,23.4915046 C9.60382686,23.0476022 12.1236826,22.68618 14.3958571,23.063473 C16.4869598,23.4104672 17.9432291,23.9709962 19.0039299,24.5219066 C19.4901546,24.774878 19.9494469,24.1400447 19.5562831,23.7579423 C18.0355685,22.2800309 15.6955823,20.4960048 12.1364273,19.7483923 C11.9806046,19.7156888 11.9024528,19.5399072 11.9830093,19.40236 L17.3432635,10.2374339 C17.5195259,9.93636895 17.9545311,9.93636895 18.1307935,10.2374339 L28.3679629,27.7408004 C28.583662,28.1094366 28.4028306,28.5802714 27.9978839,28.7158949 C27.1956853,28.9840158 26.2374236,29.1845654 25.1646994,29.1845654 C24.4822535,29.1845654 23.7957197,29.1040089 23.1075026,28.9440982 C23.1070216,28.9440982 21.1236482,28.63101 18.4720165,27.0489763 C15.8203847,25.4671831 10.7078117,23.4491824 4.97098592,26.7161697 C2.52663689,28.2869014 0.897952594,30.4352353 0.0397251804,31.7840158 C-0.0946959808,31.995146 0.137354861,32.2469151 0.358103744,32.1290862 C2.32921333,31.0760804 7.64377877,28.5891687 12.4326829,29.4832257 C15.2790931,30.0144177 18.5318928,32.1632326 21.9133425,33.3953865 C27.5070903,35.4682137 32.9911852,31.9953865 33.0029681,31.987932 C33.5827345,31.6048677 33.923236,31.313662 33.9811886,31.2631639 L34.0511645,31.2020852 C34.9449811,30.4220096 35.1582755,29.1167537 34.5592717,28.0928444" id="Glpyh" fill="#00ADD4"></path>
    </g>
</svg>