<svg width="166" height="35" viewBox="0 0 166 35" fill="none" xmlns="http://www.w3.org/2000/svg">
<path fill-rule="evenodd" clip-rule="evenodd" d="M45.7515 9.89463C47.8253 9.89463 49.5233 10.5025 50.8444 11.7179C51.5578 12.3789 52.0996 13.1647 52.4697 14.0761C52.8391 14.988 53.024 16.0119 53.024 17.1478C53.024 18.2843 52.8391 19.3113 52.4697 20.2292C52.0996 21.148 51.5578 21.9372 50.8444 22.5975C50.1836 23.1922 49.4278 23.6414 48.5753 23.9451C47.7234 24.2491 46.7819 24.4008 45.7515 24.4008H40.341C40.209 24.4008 40.0967 24.3549 40.0041 24.2623C39.9115 24.17 39.8656 24.0577 39.8656 23.9254V10.3703C39.8656 10.2385 39.9115 10.126 40.0041 10.0334C40.0967 9.94104 40.209 9.89463 40.341 9.89463H45.7515ZM65.3307 9.89449C65.4628 9.89449 65.5751 9.94114 65.6676 10.0335C65.7602 10.1258 65.8066 10.2384 65.8066 10.3704V13.0653C65.8066 13.1978 65.7602 13.3101 65.6676 13.4022C65.5751 13.495 65.4628 13.5409 65.3307 13.5409H59.1678C59.0358 13.5409 58.9235 13.5876 58.8309 13.6799C58.7383 13.7723 58.6924 13.8848 58.6924 14.0168V14.8491C58.6924 14.9811 58.7383 15.0939 58.8309 15.186C58.9235 15.2783 59.0358 15.3245 59.1678 15.3245H64.5384C64.6704 15.3245 64.7827 15.3709 64.8751 15.4635C64.9676 15.5558 65.0136 15.6683 65.0136 15.8004V18.535C65.0136 18.6672 64.9676 18.7797 64.8751 18.8718C64.7827 18.9644 64.6704 19.0108 64.5384 19.0108H59.1678C59.0358 19.0108 58.9235 19.057 58.8309 19.1496C58.7383 19.2419 58.6924 19.3542 58.6924 19.4862V20.2394C58.6924 20.3716 58.7383 20.4839 58.8309 20.576C58.9235 20.6686 59.0358 20.7148 59.1678 20.7148H65.3307C65.4628 20.7148 65.5751 20.7614 65.6676 20.8538C65.7602 20.9461 65.8066 21.0584 65.8066 21.1907V23.9253C65.8066 24.0578 65.7602 24.1701 65.6676 24.2622C65.5751 24.3547 65.4628 24.4009 65.3307 24.4009H55.2439C55.1119 24.4009 54.9996 24.3547 54.907 24.2622C54.8144 24.1701 54.7685 24.0578 54.7685 23.9253V10.3704C54.7685 10.2384 54.8144 10.1258 54.907 10.0335C54.9996 9.94114 55.1119 9.89449 55.2439 9.89449H65.3307ZM71.7516 9.89451C71.8836 9.89451 71.9959 9.94116 72.0885 10.0333C72.1808 10.1258 72.2274 10.2384 72.2274 10.3704V20.2788C72.2274 20.4113 72.27 20.5236 72.3559 20.6157C72.4415 20.7086 72.5574 20.7545 72.7029 20.7545H78.6679C78.7999 20.7545 78.9122 20.8011 79.0048 20.8935C79.0966 20.9856 79.1433 21.0984 79.1433 21.2301V23.9253C79.1433 24.0578 79.0966 24.1701 79.0048 24.2622C78.9122 24.3548 78.7999 24.4009 78.6679 24.4009H68.7787C68.6332 24.4009 68.518 24.3548 68.4322 24.2622C68.3458 24.1701 68.3035 24.0578 68.3035 23.9253V10.3704C68.3035 10.2384 68.3458 10.1258 68.4322 10.0333C68.518 9.94116 68.6332 9.89451 68.7787 9.89451H71.7516ZM88.3585 9.89461C88.5035 9.89461 88.6192 9.94102 88.7053 10.0334C88.7909 10.1259 88.8339 10.2385 88.8339 10.3702V13.0652C88.8339 13.1977 88.7909 13.31 88.7053 13.4023C88.6192 13.4951 88.5035 13.541 88.3585 13.541H85.5835C85.4515 13.541 85.3392 13.5875 85.2469 13.6798C85.1543 13.7724 85.1084 13.8849 85.1084 14.0169V23.9254C85.1084 24.0576 85.0653 24.1699 84.9797 24.2623C84.8936 24.3549 84.7777 24.4008 84.633 24.4008H81.6603C81.5283 24.4008 81.4153 24.3549 81.3234 24.2623C81.2309 24.1699 81.1844 24.0576 81.1844 23.9254V14.0169C81.1844 13.8849 81.1414 13.7724 81.0558 13.6798C80.9697 13.5875 80.8543 13.541 80.709 13.541H77.8951C77.7626 13.541 77.6503 13.4951 77.5582 13.4023C77.4651 13.31 77.4192 13.1977 77.4192 13.0652V10.3702C77.4192 10.2385 77.4651 10.1259 77.5582 10.0334C77.6503 9.94102 77.7626 9.89461 77.8951 9.89461H88.3585ZM96.5434 9.91483C96.6747 9.91483 96.8041 9.95763 96.9296 10.0432C97.0547 10.1293 97.1439 10.2315 97.1968 10.3503L102.984 23.8263C103.036 23.9451 103.026 24.0707 102.954 24.2029C102.881 24.3349 102.739 24.4008 102.528 24.4008H99.1388C98.9936 24.4008 98.8584 24.358 98.7329 24.2722C98.6071 24.1861 98.5117 24.0839 98.4455 23.9648L97.9107 22.7757C97.8444 22.6572 97.7484 22.5547 97.6231 22.4687C97.4976 22.3831 97.3685 22.34 97.2369 22.34H93.0552C92.9097 22.34 92.7741 22.3831 92.6491 22.4687C92.5233 22.5547 92.4343 22.6572 92.3814 22.7757L91.8262 23.9648C91.7733 24.0839 91.6843 24.1861 91.5593 24.2722C91.4335 24.358 91.3044 24.4008 91.1724 24.4008H87.7637C87.6981 24.4008 87.6288 24.3878 87.5562 24.3614C87.4834 24.3349 87.424 24.2955 87.3776 24.2423C87.3316 24.1897 87.3018 24.1236 87.2886 24.0444C87.2758 23.9648 87.2956 23.8727 87.3477 23.7667L93.0947 10.3503C93.1476 10.2315 93.2368 10.1293 93.3625 10.0432C93.4881 9.95763 93.623 9.91483 93.7684 9.91483H96.5434ZM114.577 9.89451C114.708 9.89451 114.821 9.94116 114.913 10.0333C115.005 10.1258 115.052 10.2384 115.052 10.3704V20.2788C115.052 20.4113 115.095 20.5236 115.18 20.6157C115.267 20.7086 115.382 20.7545 115.528 20.7545H121.492C121.624 20.7545 121.737 20.8011 121.829 20.8935C121.922 20.9856 121.968 21.0984 121.968 21.2301V23.9253C121.968 24.0578 121.922 24.1701 121.829 24.2622C121.737 24.3548 121.624 24.4009 121.492 24.4009H111.604C111.458 24.4009 111.343 24.3548 111.257 24.2622C111.171 24.1701 111.128 24.0578 111.128 23.9253V10.3704C111.128 10.2384 111.171 10.1258 111.257 10.0333C111.343 9.94116 111.458 9.89451 111.604 9.89451H114.577ZM131.52 9.91483C131.651 9.91483 131.781 9.95763 131.906 10.0432C132.031 10.1293 132.121 10.2315 132.173 10.3503L137.96 23.8263C138.013 23.9451 138.003 24.0707 137.931 24.2029C137.858 24.3349 137.715 24.4008 137.504 24.4008H134.116C133.97 24.4008 133.835 24.358 133.709 24.2722C133.584 24.1861 133.488 24.0839 133.422 23.9648L132.887 22.7757C132.821 22.6572 132.725 22.5547 132.6 22.4687C132.474 22.3831 132.345 22.34 132.213 22.34H128.032C127.886 22.34 127.751 22.3831 127.626 22.4687C127.5 22.5547 127.411 22.6572 127.358 22.7757L126.803 23.9648C126.75 24.0839 126.661 24.1861 126.536 24.2722C126.41 24.358 126.281 24.4008 126.149 24.4008H122.74C122.675 24.4008 122.605 24.3878 122.533 24.3614C122.46 24.3349 122.401 24.2955 122.354 24.2423C122.308 24.1897 122.279 24.1236 122.265 24.0444C122.252 23.9648 122.272 23.8727 122.324 23.7667L128.071 10.3503C128.124 10.2315 128.213 10.1293 128.339 10.0432C128.465 9.95763 128.6 9.91483 128.745 9.91483H131.52ZM142.855 9.89453C142.987 9.89453 143.099 9.94118 143.192 10.0333C143.284 10.1259 143.33 10.2384 143.33 10.3704V14.9282C143.33 15.0607 143.357 15.1365 143.41 15.1562C143.462 15.1759 143.529 15.1331 143.608 15.0273L147.175 10.2913C147.254 10.1855 147.367 10.0963 147.512 10.0234C147.657 9.95104 147.802 9.91473 147.948 9.91473H151.733C151.878 9.91473 151.971 9.97749 152.01 10.1028C152.05 10.2285 152.03 10.344 151.951 10.4498L146.739 16.9696C146.66 17.0756 146.623 17.1973 146.63 17.3363C146.636 17.475 146.686 17.5907 146.779 17.683C147.227 18.1717 147.703 18.6805 148.206 19.209C148.708 19.7376 149.206 20.269 149.702 20.804C150.197 21.3393 150.686 21.8679 151.168 22.3895C151.65 22.9115 152.11 23.397 152.546 23.8462C152.637 23.952 152.671 24.0706 152.645 24.2028C152.618 24.3348 152.532 24.4007 152.387 24.4007H148.285C148.139 24.4007 147.991 24.3683 147.839 24.3016C147.687 24.236 147.571 24.1501 147.492 24.0443L143.648 19.7438C143.555 19.6383 143.479 19.5988 143.42 19.6248C143.36 19.6515 143.33 19.7308 143.33 19.8626V23.9253C143.33 24.0578 143.284 24.1699 143.192 24.2622C143.099 24.3548 142.987 24.4007 142.855 24.4007H139.882C139.737 24.4007 139.621 24.3548 139.536 24.2622C139.449 24.1699 139.407 24.0578 139.407 23.9253V10.3704C139.407 10.2384 139.449 10.1259 139.536 10.0333C139.621 9.94118 139.737 9.89453 139.882 9.89453H142.855ZM164.455 9.89449C164.588 9.89449 164.7 9.94114 164.792 10.0335C164.885 10.1258 164.931 10.2384 164.931 10.3704V13.0653C164.931 13.1978 164.885 13.3101 164.792 13.4022C164.7 13.495 164.588 13.5409 164.455 13.5409H158.292C158.16 13.5409 158.048 13.5876 157.955 13.6799C157.862 13.7723 157.816 13.8848 157.816 14.0168V14.8491C157.816 14.9811 157.862 15.0939 157.955 15.186C158.048 15.2783 158.16 15.3245 158.292 15.3245H163.663C163.794 15.3245 163.907 15.3709 164 15.4635C164.092 15.5558 164.138 15.6683 164.138 15.8004V18.535C164.138 18.6672 164.092 18.7797 164 18.8718C163.907 18.9644 163.794 19.0108 163.663 19.0108H158.292C158.16 19.0108 158.048 19.057 157.955 19.1496C157.862 19.2419 157.816 19.3542 157.816 19.4862V20.2394C157.816 20.3716 157.862 20.4839 157.955 20.576C158.048 20.6686 158.16 20.7148 158.292 20.7148H164.455C164.588 20.7148 164.7 20.7614 164.792 20.8538C164.885 20.9461 164.931 21.0584 164.931 21.1907V23.9253C164.931 24.0578 164.885 24.1701 164.792 24.2622C164.7 24.3547 164.588 24.4009 164.455 24.4009H154.368C154.236 24.4009 154.124 24.3547 154.032 24.2622C153.939 24.1701 153.893 24.0578 153.893 23.9253V10.3704C153.893 10.2384 153.939 10.1258 154.032 10.0335C154.124 9.94114 154.236 9.89449 154.368 9.89449H164.455ZM45.7515 13.5805H44.265C44.1329 13.5805 44.0206 13.6272 43.9281 13.7193C43.8355 13.8118 43.7896 13.9246 43.7896 14.0564V20.2787C43.7896 20.4112 43.8355 20.5235 43.9281 20.6159C44.0206 20.7087 44.1329 20.7546 44.265 20.7546H45.7515C46.1211 20.7546 46.5044 20.7087 46.9007 20.6159C47.297 20.5235 47.6536 20.3485 47.9708 20.0907C48.2877 19.8331 48.5484 19.4698 48.7538 19.0009C48.9582 18.532 49.0611 17.9207 49.0611 17.1678C49.0611 16.4144 48.9582 15.8036 48.7538 15.3347C48.5484 14.8658 48.2844 14.5022 47.9609 14.2447C47.6373 13.9869 47.2807 13.8118 46.8909 13.7193C46.5011 13.6272 46.1211 13.5805 45.7515 13.5805ZM95.136 15.959C95.0696 15.959 95.0102 16.0184 94.9578 16.1374L93.9668 18.5351C93.9139 18.6541 93.9139 18.7563 93.9668 18.8424C94.0193 18.9283 94.1188 18.9711 94.2643 18.9711H96.0279C96.1599 18.9711 96.2558 18.9283 96.3152 18.8424C96.3746 18.7563 96.371 18.6541 96.3054 18.5351C96.1734 18.2047 96.0144 17.8185 95.8295 17.3756C95.6443 16.9331 95.4726 16.5205 95.3144 16.1374C95.2615 16.0184 95.2021 15.959 95.136 15.959ZM130.112 15.959C130.046 15.959 129.987 16.0184 129.935 16.1374L128.944 18.5351C128.891 18.6541 128.891 18.7563 128.944 18.8424C128.996 18.9283 129.096 18.9711 129.241 18.9711H131.004C131.137 18.9711 131.233 18.9283 131.292 18.8424C131.351 18.7563 131.348 18.6541 131.282 18.5351C131.15 18.2047 130.991 17.8185 130.806 17.3756C130.621 16.9331 130.449 16.5205 130.291 16.1374C130.238 16.0184 130.179 15.959 130.112 15.959Z" fill="#17181C"/>
<path fill-rule="evenodd" clip-rule="evenodd" d="M34.5593 28.0928L18.5379 0.699785C18.1796 0.0873153 17.2944 0.0873153 16.9362 0.699785L3.32066 23.9789C3.08139 24.3884 3.51327 24.8612 3.94251 24.6599C4.11877 24.577 4.3222 24.4935 4.5456 24.4103L4.54103 24.4195C4.54103 24.4195 4.91303 24.2752 5.54161 24.0761C6.2344 23.8633 6.99355 23.6618 7.68081 23.4915C9.60383 23.0476 12.1237 22.6862 14.3959 23.0635C16.487 23.4105 17.9432 23.971 19.0039 24.5219C19.4902 24.7749 19.9494 24.14 19.5563 23.7579C18.0356 22.28 15.6956 20.496 12.1364 19.7484C11.9806 19.7157 11.9025 19.5399 11.983 19.4024L17.3433 10.2374C17.5195 9.93637 17.9545 9.93637 18.1308 10.2374L28.368 27.7408C28.5837 28.1094 28.4028 28.5803 27.9979 28.7159C27.1957 28.984 26.2374 29.1846 25.1647 29.1846C24.4823 29.1846 23.7957 29.104 23.1075 28.9441C23.1075 28.9441 21.1236 28.631 18.472 27.049C15.8204 25.4672 10.7078 23.4492 4.97098 26.7162C2.52664 28.2869 0.897952 30.4352 0.0397244 31.784C-0.0946967 31.9951 0.137354 32.2469 0.358103 32.1291C2.32921 31.0761 7.64378 28.5892 12.4327 29.4832C15.2791 30.0144 18.5319 32.1632 21.9133 33.3954C27.5071 35.4682 32.9912 31.9954 33.003 31.9879C33.5827 31.6049 33.9232 31.3137 33.9812 31.2632L34.0512 31.2021C34.945 30.422 35.1583 29.1168 34.5593 28.0928Z" fill="#00ADD4"/>
</svg>
