<?xml version="1.0" encoding="UTF-8" standalone="no"?>
<svg
   width="19px"
   height="16px"
   viewBox="0 0 19 16"
   version="1.1"
   id="svg635"
   sodipodi:docname="nav-home.svg"
   inkscape:version="1.1.1 (c3084ef, 2021-09-22)"
   xmlns:inkscape="http://www.inkscape.org/namespaces/inkscape"
   xmlns:sodipodi="http://sodipodi.sourceforge.net/DTD/sodipodi-0.dtd"
   xmlns="http://www.w3.org/2000/svg"
   xmlns:svg="http://www.w3.org/2000/svg">
  <sodipodi:namedview
     id="namedview637"
     pagecolor="#ffffff"
     bordercolor="#666666"
     borderopacity="1.0"
     inkscape:pageshadow="2"
     inkscape:pageopacity="0.0"
     inkscape:pagecheckerboard="0"
     showgrid="false"
     inkscape:zoom="47.875"
     inkscape:cx="11.018277"
     inkscape:cy="11.154047"
     inkscape:window-width="1670"
     inkscape:window-height="992"
     inkscape:window-x="657"
     inkscape:window-y="218"
     inkscape:window-maximized="0"
     inkscape:current-layer="svg635" />
  <!-- Generator: Sketch 40 (33762) - http://www.bohemiancoding.com/sketch -->
  <title
     id="title621">house</title>
  <desc
     id="desc623">Created with Sketch.</desc>
  <defs
     id="defs625" />
  <polyline
     id="Stroke-1"
     points="3 4.10584211 3 13.9431579 14 13.9431579 14 4.10584211"
     transform="translate(1,1)"
     style="fill:none;fill-rule:evenodd;stroke:#1cb1c2;stroke-width:1.5" />
  <polyline
     id="Stroke-3"
     points="17 6.71168421 8.5004837 0.5 0 6.71168421"
     transform="translate(1,1)"
     style="fill:none;fill-rule:evenodd;stroke:#1cb1c2;stroke-width:1.5" />
  <path
     d="m 9.75,14.5 v -3"
     id="Line"
     stroke-linecap="square"
     style="fill:#ff0000;fill-rule:evenodd;stroke:#1cb1c2;stroke-width:1.5" />
  <path
     style="fill:#ff0000;stroke-width:0.0208877"
     d="m 3.2689295,11.339802 c 0,-3.8296982 -0.00368,-4.3454707 -0.030922,-4.3350168 C 3.2210009,7.0113113 2.8193734,7.3001211 2.3455022,7.6465844 1.8716309,7.9930479 1.473474,8.2805257 1.460709,8.2854241 1.4431862,8.2921483 0.67705455,7.2769157 0.5901186,7.131769 0.57937133,7.1138256 0.98365711,6.8067384 1.885083,6.1481408 2.6059074,5.6214937 3.2105993,5.1765013 3.2288426,5.1592689 3.247086,5.1420366 3.2833583,5.1154897 3.3094475,5.1002759 3.3355369,5.0850623 4.7342793,4.0660023 6.417764,2.8356982 8.1012487,1.605394 9.489031,0.59883 9.5017247,0.59888921 9.5144184,0.59894842 10.906527,1.6086602 12.5953,2.8426933 c 1.688773,1.234033 3.090631,2.2577443 3.115241,2.274914 0.02461,0.01717 0.646435,0.4719432 1.381835,1.0106076 l 1.33709,0.9793897 -0.170347,0.2335348 c -0.09369,0.1284441 -0.28784,0.3948646 -0.431443,0.5920451 -0.143603,0.1971808 -0.266922,0.3586756 -0.274041,0.3588771 -0.0071,2.089e-4 -0.415997,-0.2941919 -0.908616,-0.6542082 l -0.895672,-0.6545747 -0.0053,4.3517023 -0.0053,4.351703 H 9.5038674 3.2689295 Z m 5.7441253,1.140616 V 10.75718 h 0.7415144 0.7415148 v 1.723238 1.723237 h 1.879946 1.879948 l -0.0053,-4.159605 -0.0053,-4.1596051 -2.29765,-1.6804413 C 10.684073,3.2797606 9.6157629,2.5002638 9.5737579,2.4717882 L 9.4973851,2.4200143 7.1612253,4.1263127 C 5.8763373,5.0647766 4.8039164,5.851938 4.7780679,5.8755601 l -0.046997,0.042949 v 4.1286479 c 0,2.270757 0.00627,4.134914 0.013925,4.142573 0.00766,0.0077 0.9711052,0.01392 2.1409922,0.01392 H 9.013055 Z"
     id="path1749" />
</svg>
